<svg width="24" height="24" viewBox="0 0 24 24" fill="none" xmlns="http://www.w3.org/2000/svg">
<path d="M5.00977 14C4.74455 14 4.4902 14.1054 4.30266 14.2929C4.11512 14.4804 4.00977 14.7348 4.00977 15V19C4.00977 19.2652 4.11512 19.5196 4.30266 19.7071C4.4902 19.8946 4.74455 20 5.00977 20H19.0098C19.275 20 19.5293 19.8946 19.7169 19.7071C19.9044 19.5196 20.0098 19.2652 20.0098 19V15C20.0098 14.7348 19.9044 14.4804 19.7169 14.2929C19.5293 14.1054 19.275 14 19.0098 14H5.00977ZM5.00977 12C4.21412 12 3.45105 11.6839 2.88845 11.1213C2.32584 10.5587 2.00977 9.79565 2.00977 9V5C2.00977 4.20435 2.32584 3.44129 2.88845 2.87868C3.45105 2.31607 4.21412 2 5.00977 2H19.0098C19.8054 2 20.5685 2.31607 21.1311 2.87868C21.6937 3.44129 22.0098 4.20435 22.0098 5V9C22.0098 9.79565 21.6937 10.5587 21.1311 11.1213C20.5685 11.6839 19.8054 12 19.0098 12C19.8054 12 20.5685 12.3161 21.1311 12.8787C21.6937 13.4413 22.0098 14.2044 22.0098 15V19C22.0098 19.7956 21.6937 20.5587 21.1311 21.1213C20.5685 21.6839 19.8054 22 19.0098 22H5.00977C4.21412 22 3.45105 21.6839 2.88845 21.1213C2.32584 20.5587 2.00977 19.7956 2.00977 19V15C2.00977 14.2044 2.32584 13.4413 2.88845 12.8787C3.45105 12.3161 4.21412 12 5.00977 12ZM5.00977 4C4.74455 4 4.4902 4.10536 4.30266 4.29289C4.11512 4.48043 4.00977 4.73478 4.00977 5V9C4.00977 9.26522 4.11512 9.51957 4.30266 9.70711C4.4902 9.89464 4.74455 10 5.00977 10H19.0098C19.275 10 19.5293 9.89464 19.7169 9.70711C19.9044 9.51957 20.0098 9.26522 20.0098 9V5C20.0098 4.73478 19.9044 4.48043 19.7169 4.29289C19.5293 4.10536 19.275 4 19.0098 4H5.00977ZM7.00977 8C6.74455 8 6.4902 7.89464 6.30266 7.70711C6.11512 7.51957 6.00977 7.26522 6.00977 7C6.00977 6.73478 6.11512 6.48043 6.30266 6.29289C6.4902 6.10536 6.74455 6 7.00977 6C7.27498 6 7.52934 6.10536 7.71687 6.29289C7.90441 6.48043 8.00977 6.73478 8.00977 7C8.00977 7.26522 7.90441 7.51957 7.71687 7.70711C7.52934 7.89464 7.27498 8 7.00977 8ZM10.0098 8C9.74455 8 9.4902 7.89464 9.30266 7.70711C9.11512 7.51957 9.00977 7.26522 9.00977 7C9.00977 6.73478 9.11512 6.48043 9.30266 6.29289C9.4902 6.10536 9.74455 6 10.0098 6C10.275 6 10.5293 6.10536 10.7169 6.29289C10.9044 6.48043 11.0098 6.73478 11.0098 7C11.0098 7.26522 10.9044 7.51957 10.7169 7.70711C10.5293 7.89464 10.275 8 10.0098 8ZM10.0098 18C9.74455 18 9.4902 17.8946 9.30266 17.7071C9.11512 17.5196 9.00977 17.2652 9.00977 17C9.00977 16.7348 9.11512 16.4804 9.30266 16.2929C9.4902 16.1054 9.74455 16 10.0098 16C10.275 16 10.5293 16.1054 10.7169 16.2929C10.9044 16.4804 11.0098 16.7348 11.0098 17C11.0098 17.2652 10.9044 17.5196 10.7169 17.7071C10.5293 17.8946 10.275 18 10.0098 18ZM7.00977 18C6.74455 18 6.4902 17.8946 6.30266 17.7071C6.11512 17.5196 6.00977 17.2652 6.00977 17C6.00977 16.7348 6.11512 16.4804 6.30266 16.2929C6.4902 16.1054 6.74455 16 7.00977 16C7.27498 16 7.52934 16.1054 7.71687 16.2929C7.90441 16.4804 8.00977 16.7348 8.00977 17C8.00977 17.2652 7.90441 17.5196 7.71687 17.7071C7.52934 17.8946 7.27498 18 7.00977 18Z" fill="#21272A"/>
</svg>
