<svg width="17" height="20" viewBox="0 0 17 20" fill="none" xmlns="http://www.w3.org/2000/svg">
<path d="M10 1V5C10 5.26522 10.1054 5.51957 10.2929 5.70711C10.4804 5.89464 10.7348 6 11 6H15" stroke="black" stroke-width="2" stroke-linecap="round" stroke-linejoin="round"/>
<path d="M8 19H3C2.46957 19 1.96086 18.7893 1.58579 18.4142C1.21071 18.0391 1 17.5304 1 17V3C1 2.46957 1.21071 1.96086 1.58579 1.58579C1.96086 1.21071 2.46957 1 3 1H10L15 6V10.5" stroke="black" stroke-width="2" stroke-linecap="round" stroke-linejoin="round"/>
<path d="M12.5851 12.6151C12.3901 12.4201 12.1586 12.2654 11.9038 12.1599C11.649 12.0543 11.3759 12 11.1001 12C10.8243 12 10.5512 12.0543 10.2964 12.1599C10.0416 12.2654 9.81011 12.4201 9.6151 12.6151C9.42008 12.8101 9.26539 13.0416 9.15985 13.2964C9.05431 13.5512 8.99999 13.8243 8.99999 14.1001C8.99999 14.3759 9.05431 14.649 9.15985 14.9038C9.26539 15.1586 9.42008 15.3901 9.6151 15.5851L13.0051 19.0051H16.0051V16.0051L12.5851 12.6151Z" stroke="black" stroke-width="1.5" stroke-linecap="round" stroke-linejoin="round"/>
</svg>
