<svg width="19" height="23" viewBox="0 0 19 23" fill="none" xmlns="http://www.w3.org/2000/svg">
<path d="M10 1V5C10 5.26522 10.1054 5.51957 10.2929 5.70711C10.4804 5.89464 10.7348 6 11 6H15" stroke="black" stroke-width="2" stroke-linecap="round" stroke-linejoin="round"/>
<path d="M8 19H3C2.46957 19 1.96086 18.7893 1.58579 18.4142C1.21071 18.0391 1 17.5304 1 17V3C1 2.46957 1.21071 1.96086 1.58579 1.58579C1.96086 1.21071 2.46957 1 3 1H10L15 6V10.5" stroke="black" stroke-width="2" stroke-linecap="round" stroke-linejoin="round"/>
<path d="M17 16.9557C16.917 17.5856 16.6634 18.1811 16.2663 18.6783C15.8693 19.1756 15.3437 19.5558 14.746 19.7783C14.1484 20.0008 13.5012 20.0572 12.8738 19.9413C12.2464 19.8254 11.6625 19.5417 11.1848 19.1206C10.7071 18.6995 10.3535 18.1568 10.162 17.5509C9.97053 16.9449 9.94833 16.2985 10.0978 15.6809C10.2473 15.0634 10.5628 14.498 11.0106 14.0454C11.4583 13.5928 12.0213 13.27 12.6393 13.1118C13.7866 12.818 15.6117 13.3641 16.2663 15" stroke="black" stroke-width="1.5" stroke-linecap="round" stroke-linejoin="round"/>
<path d="M16.7 12.2V15.2H13.7" stroke="black" stroke-width="1.5" stroke-linecap="round" stroke-linejoin="round"/>
</svg>
