<svg width="20" height="20" viewBox="0 0 20 20" fill="none" xmlns="http://www.w3.org/2000/svg">
<path d="M3.00977 12C2.74455 12 2.4902 12.1054 2.30266 12.2929C2.11512 12.4804 2.00977 12.7348 2.00977 13V17C2.00977 17.2652 2.11512 17.5196 2.30266 17.7071C2.4902 17.8946 2.74455 18 3.00977 18H17.0098C17.275 18 17.5293 17.8946 17.7169 17.7071C17.9044 17.5196 18.0098 17.2652 18.0098 17V13C18.0098 12.7348 17.9044 12.4804 17.7169 12.2929C17.5293 12.1054 17.275 12 17.0098 12H3.00977ZM3.00977 10C2.21412 10 1.45105 9.68393 0.888445 9.12132C0.325836 8.55871 0.00976563 7.79565 0.00976563 7L0.00976562 3C0.00976563 2.20435 0.325836 1.44129 0.888445 0.87868C1.45105 0.31607 2.21412 0 3.00977 0L17.0098 0C17.8054 0 18.5685 0.31607 19.1311 0.87868C19.6937 1.44129 20.0098 2.20435 20.0098 3V7C20.0098 7.79565 19.6937 8.55871 19.1311 9.12132C18.5685 9.68393 17.8054 10 17.0098 10C17.8054 10 18.5685 10.3161 19.1311 10.8787C19.6937 11.4413 20.0098 12.2044 20.0098 13V17C20.0098 17.7956 19.6937 18.5587 19.1311 19.1213C18.5685 19.6839 17.8054 20 17.0098 20H3.00977C2.21412 20 1.45105 19.6839 0.888445 19.1213C0.325836 18.5587 0.00976563 17.7956 0.00976563 17L0.00976562 13C0.00976563 12.2044 0.325836 11.4413 0.888445 10.8787C1.45105 10.3161 2.21412 10 3.00977 10ZM3.00977 2C2.74455 2 2.4902 2.10536 2.30266 2.29289C2.11512 2.48043 2.00977 2.73478 2.00977 3V7C2.00977 7.26522 2.11512 7.51957 2.30266 7.70711C2.4902 7.89464 2.74455 8 3.00977 8H17.0098C17.275 8 17.5293 7.89464 17.7169 7.70711C17.9044 7.51957 18.0098 7.26522 18.0098 7V3C18.0098 2.73478 17.9044 2.48043 17.7169 2.29289C17.5293 2.10536 17.275 2 17.0098 2H3.00977ZM5.00977 6C4.74455 6 4.4902 5.89464 4.30266 5.70711C4.11512 5.51957 4.00977 5.26522 4.00977 5C4.00977 4.73478 4.11512 4.48043 4.30266 4.29289C4.4902 4.10536 4.74455 4 5.00977 4C5.27498 4 5.52934 4.10536 5.71687 4.29289C5.90441 4.48043 6.00977 4.73478 6.00977 5C6.00977 5.26522 5.90441 5.51957 5.71687 5.70711C5.52934 5.89464 5.27498 6 5.00977 6ZM8.00977 6C7.74455 6 7.4902 5.89464 7.30266 5.70711C7.11512 5.51957 7.00977 5.26522 7.00977 5C7.00977 4.73478 7.11512 4.48043 7.30266 4.29289C7.4902 4.10536 7.74455 4 8.00977 4C8.27498 4 8.52934 4.10536 8.71687 4.29289C8.90441 4.48043 9.00977 4.73478 9.00977 5C9.00977 5.26522 8.90441 5.51957 8.71687 5.70711C8.52934 5.89464 8.27498 6 8.00977 6ZM8.00977 16C7.74455 16 7.4902 15.8946 7.30266 15.7071C7.11512 15.5196 7.00977 15.2652 7.00977 15C7.00977 14.7348 7.11512 14.4804 7.30266 14.2929C7.4902 14.1054 7.74455 14 8.00977 14C8.27498 14 8.52934 14.1054 8.71687 14.2929C8.90441 14.4804 9.00977 14.7348 9.00977 15C9.00977 15.2652 8.90441 15.5196 8.71687 15.7071C8.52934 15.8946 8.27498 16 8.00977 16ZM5.00977 16C4.74455 16 4.4902 15.8946 4.30266 15.7071C4.11512 15.5196 4.00977 15.2652 4.00977 15C4.00977 14.7348 4.11512 14.4804 4.30266 14.2929C4.4902 14.1054 4.74455 14 5.00977 14C5.27498 14 5.52934 14.1054 5.71687 14.2929C5.90441 14.4804 6.00977 14.7348 6.00977 15C6.00977 15.2652 5.90441 15.5196 5.71687 15.7071C5.52934 15.8946 5.27498 16 5.00977 16Z" fill="#21272A"/>
</svg>
